<?xml version="1.0" encoding="UTF-8"?>
<svg version="1.1" xmlns="http://www.w3.org/2000/svg" width="240" height="240">
<path d="M0 0 C7.88871356 6.22690419 13.9657589 13.2446118 19.65234375 21.5 C20.51279297 22.74716797 20.51279297 22.74716797 21.390625 24.01953125 C27.45577652 33.46988362 31.71427762 44.45302304 33.65234375 55.5 C26.8128222 58.31627358 19.8747999 59.94761232 12.65234375 61.5 C12.01619141 59.75976562 12.01619141 59.75976562 11.3671875 57.984375 C3.09756433 35.76512797 -7.94096032 19.41295106 -29.56640625 8.94140625 C-53.80712266 -1.16889255 -82.38908515 -0.25306479 -106.66015625 9.125 C-124.87465847 17.52519917 -136.93617026 32.78700773 -143.85546875 51.38671875 C-145.23381007 55.37203149 -146.32883126 59.40989152 -147.34765625 63.5 C-147.66734375 64.73621094 -147.98703125 65.97242187 -148.31640625 67.24609375 C-152.98396053 88.00776914 -153.02501223 114.96132982 -147.34765625 135.5 C-147.04166504 136.6144751 -147.04166504 136.6144751 -146.72949219 137.75146484 C-141.01435324 157.80436504 -131.48315548 175.21764811 -113.34765625 186.5 C-92.31140472 197.84084318 -65.58777222 200.14757135 -42.4921875 194.47265625 C-25.1125948 189.09685677 -11.94660962 180.38655874 -2.79296875 164.52734375 C1.92922783 154.63625631 2.49255375 142.05416533 -0.78515625 131.5625 C-3.74142327 124.60782866 -9.09140764 118.67083241 -15.34765625 114.5 C-15.55519531 115.42039063 -15.76273438 116.34078125 -15.9765625 117.2890625 C-19.65839851 132.416941 -25.22329217 146.17806967 -38.53515625 155.25 C-52.59825895 163.6304612 -68.48425161 165.4460219 -84.34765625 161.5 C-96.16168964 157.97055752 -104.44649343 151.07095056 -111.19140625 140.8359375 C-115.65750582 131.81320931 -115.81160617 120.12936414 -113.66015625 110.38671875 C-109.76771842 99.95822906 -102.31775934 92.01293196 -92.41796875 87.0234375 C-83.4790156 83.13396934 -74.87005644 81.24633802 -65.16015625 80.8125 C-64.34224609 80.7727002 -63.52433594 80.73290039 -62.68164062 80.69189453 C-45.83359008 80.00468872 -45.83359008 80.00468872 -38.34765625 82.5 C-41.15042799 71.35078813 -41.15042799 71.35078813 -48.53125 62.9296875 C-57.72703905 57.64475126 -67.73505988 57.32965726 -78.1171875 58.92578125 C-83.94683821 60.58993723 -88.22355814 64.13392675 -92.34765625 68.5 C-92.67765625 69.16 -93.00765625 69.82 -93.34765625 70.5 C-98.07609239 68.92686828 -101.69104055 66.29358765 -105.66015625 63.375 C-106.62791992 62.67310547 -106.62791992 62.67310547 -107.61523438 61.95703125 C-109.19614519 60.8094071 -110.77237926 59.65534523 -112.34765625 58.5 C-106.26378673 47.21496524 -97.21364615 41.17665167 -85.26171875 36.72265625 C-70.1543024 32.35616671 -53.15058812 34.15065132 -39.34765625 41.5 C-26.21922514 49.46277694 -20.15322754 61.24211442 -16.6027832 75.703125 C-15.84967988 78.93220093 -15.30862435 81.99372815 -15.046875 85.3046875 C-14.6759815 88.60835271 -14.6759815 88.60835271 -12.1953125 90.21484375 C-10.81666016 90.82005859 -10.81666016 90.82005859 -9.41015625 91.4375 C6.38836327 99.16258672 15.61463454 111.27378819 21.7578125 127.40234375 C26.54095746 143.41352851 24.50268644 161.85271523 16.65234375 176.5 C4.90015745 196.89780964 -12.84138317 209.93086624 -35.34765625 216.5 C-46.16279525 219.04970945 -56.51795018 220.03854063 -67.59765625 219.9375 C-68.31177673 219.93445862 -69.02589722 219.93141724 -69.76165771 219.92828369 C-97.38110675 219.75516683 -122.30817405 212.50591523 -142.34765625 192.5 C-143.48654297 191.37851562 -143.48654297 191.37851562 -144.6484375 190.234375 C-167.54568082 166.34847696 -173.82970184 131.75371085 -173.66015625 99.8125 C-173.6580011 99.07432037 -173.65584595 98.33614075 -173.65362549 97.57559204 C-173.49638269 63.83428636 -165.86664716 30.15376463 -141.66015625 5.25 C-105.67128797 -30.18501587 -39.07209021 -29.65262198 0 0 Z M-90.16015625 113.1875 C-92.91950102 117.36593637 -93.74501537 120.52032936 -93.34765625 125.5 C-91.78107335 131.87077048 -87.96256651 134.98001359 -82.56640625 138.37109375 C-75.31558497 142.06033204 -65.20955923 141.43937551 -57.35546875 139.921875 C-49.73694043 137.31116436 -44.62016448 131.95938572 -41 124.85546875 C-38.46857823 118.51330452 -37.61050424 112.29462064 -37.34765625 105.5 C-44.04965619 103.03703955 -50.58016547 103.16822948 -57.66015625 103.1875 C-58.83255859 103.17138672 -60.00496094 103.15527344 -61.21289062 103.13867188 C-72.74607682 103.13223235 -81.64179661 105.04773413 -90.16015625 113.1875 Z " fill="#000000" transform="translate(189.34765625,20.5)"/>
</svg>
